<svg width="1024" height="1024" viewBox="0 0 1024 1024" xmlns="http://www.w3.org/2000/svg">
  <defs>
    <radialGradient id="bg" cx="50%" cy="42%" r="75%">
      <stop offset="0%" stop-color="#151b24"/><stop offset="70%" stop-color="#0b0f15"/><stop offset="100%" stop-color="#06080b"/>
    </radialGradient>
    <linearGradient id="mono" x1="0%" y1="100%" x2="100%" y2="0%">
      <stop offset="0%" stop-color="#22d3ee"/><stop offset="55%" stop-color="#2dd4bf"/><stop offset="100%" stop-color="#34d399"/>
    </linearGradient>
    <linearGradient id="gold" x1="0%" y1="100%" x2="100%" y2="0%">
      <stop offset="0%" stop-color="#B47A2B"/><stop offset="60%" stop-color="#E8B84B"/><stop offset="100%" stop-color="#F6DFA0"/>
    </linearGradient>
    <linearGradient id="dawn" x1="0%" y1="100%" x2="0%" y2="0%">
      <stop offset="0%" stop-color="#E0662F"/><stop offset="55%" stop-color="#E8B84B"/><stop offset="100%" stop-color="#F6DFA0"/>
    </linearGradient>
    <linearGradient id="deep" x1="0%" y1="0%" x2="100%" y2="100%">
      <stop offset="0%" stop-color="#0F9D62"/><stop offset="100%" stop-color="#0B6B7A"/>
    </linearGradient>
    <linearGradient id="green" x1="0%" y1="0%" x2="100%" y2="100%">
      <stop offset="0%" stop-color="#8FD86A"/><stop offset="100%" stop-color="#03E095"/>
    </linearGradient>
    <linearGradient id="blue" x1="0%" y1="0%" x2="100%" y2="100%">
      <stop offset="0%" stop-color="#6FA8E8"/><stop offset="100%" stop-color="#3FA9C9"/>
    </linearGradient>
  </defs>

  <rect width="1024" height="1024" fill="url(#bg)"/>

  <path d="M 512.0 192.0 L 514.8 192.0 L 517.6 192.0 L 520.4 192.1 L 523.2 192.2 L 526.0 192.3 L 528.7 192.4 L 531.5 192.6 L 534.3 192.8 L 537.1 193.0 L 539.9 193.2 L 542.7 193.5 L 545.4 193.8 L 548.2 194.1 L 551.0 194.4 L 553.8 194.7 L 556.5 195.1 L 559.3 195.5 L 562.1 195.9 L 564.8 196.4 L 567.6 196.9 L 570.3 197.4 L 573.1 197.9 L 575.8 198.4 L 578.5 199.0 L 581.3 199.6 L 584.0 200.2 L 586.7 200.8 L 589.4 201.5 L 592.1 202.2 L 594.8 202.9 L 597.5 203.6 L 600.2 204.4 L 602.9 205.2 L 605.6 206.0 L 608.2 206.8 L 610.9 207.7 L 613.5 208.5 L 616.2 209.4 L 618.8 210.4 L 621.4 211.3 L 624.1 212.3 L 626.7 213.3 L 629.3 214.3 L 631.9 215.3 L 634.5 216.4 L 637.0 217.4 L 639.6 218.5 L 642.2 219.7 L 644.7 220.8 L 647.2 222.0 L 649.8 223.2 L 652.3 224.4 L 654.8 225.6 L 657.3 226.9 L 659.8 228.2 L 662.2 229.5 L 664.7 230.8 L 667.1 232.1 L 669.6 233.5 L 672.0 234.9 L 674.4 236.3 L 676.8 237.7 L 679.2 239.2 L 681.6 240.6 L 683.9 242.1 L 686.3 243.6 L 688.6 245.2 L 690.9 246.7 L 693.2 248.3 L 695.5 249.9 L 697.8 251.5 L 700.1 253.1 L 702.3 254.8 L 704.6 256.4 L 706.8 258.1 L 709.0 259.8 L 711.2 261.6 L 713.4 263.3 L 715.5 265.1 L 717.7 266.9 L 719.8 268.7 L 721.9 270.5 L 724.0 272.3 L 726.1 274.2 L 728.2 276.1 L 730.2 278.0 L 732.3 279.9 L 734.3 281.8 L 736.3 283.8 L 738.3 285.7 L 740.2 287.7 L 742.2 289.7 L 744.1 291.7 L 746.0 293.8 L 747.9 295.8 L 749.8 297.9 L 751.7 300.0 L 753.5 302.1 L 755.3 304.2 L 757.1 306.3 L 758.9 308.5 L 760.7 310.6 L 762.4 312.8 L 764.2 315.0 L 765.9 317.2 L 766.5 320.2 L 765.4 324.5 L 764.3 328.7 L 763.1 332.9 L 761.9 337.0 L 760.6 341.2 L 759.2 345.2 L 760.6 347.5 L 773.0 342.5 L 785.6 337.7 L 798.2 333.2 L 811.0 328.8 L 823.8 324.7 L 836.7 320.7 L 849.7 317.0 L 839.2 326.9 L 828.4 336.6 L 817.6 346.1 L 806.6 355.4 L 795.4 364.5 L 784.1 373.3 L 772.7 382.0 L 774.4 384.0 L 779.5 384.4 L 784.6 384.9 L 789.7 385.5 L 794.7 386.1 L 799.8 386.8 L 805.0 387.6 L 807.6 389.5 L 808.7 392.1 L 809.7 394.7 L 810.7 397.3 L 811.7 399.9 L 812.7 402.6 L 813.6 405.2 L 814.6 407.8 L 815.5 410.5 L 816.3 413.1 L 817.2 415.8 L 818.0 418.4 L 818.8 421.1 L 819.6 423.8 L 820.4 426.5 L 821.1 429.2 L 821.8 431.9 L 822.5 434.6 L 823.2 437.3 L 823.8 440.0 L 824.4 442.7 L 825.0 445.5 L 825.6 448.2 L 826.1 450.9 L 826.6 453.7 L 827.1 456.4 L 827.6 459.2 L 828.1 461.9 L 828.5 464.7 L 828.9 467.5 L 829.3 470.2 L 829.6 473.0 L 829.9 475.8 L 830.2 478.6 L 830.5 481.3 L 830.8 484.1 L 831.0 486.9 L 831.2 489.7 L 831.4 492.5 L 831.6 495.3 L 831.7 498.0 L 831.8 500.8 L 831.9 503.6 L 832.0 506.4 L 832.0 509.2 L 832.0 512.0 L 832.0 514.8 L 832.0 517.6 L 831.9 520.4 L 831.8 523.2 L 831.7 526.0 L 831.6 528.7 L 831.4 531.5 L 831.2 534.3 L 831.0 537.1 L 830.8 539.9 L 830.5 542.7 L 830.2 545.4 L 829.9 548.2 L 829.6 551.0 L 829.3 553.8 L 828.9 556.5 L 828.5 559.3 L 828.1 562.1 L 827.6 564.8 L 827.1 567.6 L 826.6 570.3 L 826.1 573.1 L 825.6 575.8 L 825.0 578.5 L 824.4 581.3 L 823.8 584.0 L 823.2 586.7 L 822.5 589.4 L 821.8 592.1 L 821.1 594.8 L 820.4 597.5 L 819.6 600.2 L 818.8 602.9 L 818.0 605.6 L 817.2 608.2 L 816.3 610.9 L 815.5 613.5 L 814.6 616.2 L 813.6 618.8 L 812.7 621.4 L 811.7 624.1 L 810.7 626.7 L 809.7 629.3 L 808.7 631.9 L 807.6 634.5 L 806.6 637.0 L 805.5 639.6 L 804.3 642.2 L 803.2 644.7 L 802.0 647.2 L 800.8 649.8 L 799.6 652.3 L 798.4 654.8 L 797.1 657.3 L 795.8 659.8 L 794.5 662.2 L 793.2 664.7 L 791.9 667.1 L 790.5 669.6 L 789.1 672.0 L 787.7 674.4 L 786.3 676.8 L 784.8 679.2 L 783.4 681.6 L 781.9 683.9 L 780.4 686.3 L 778.8 688.6 L 777.3 690.9 L 775.7 693.2 L 774.1 695.5 L 772.5 697.8 L 770.9 700.1 L 769.2 702.3 L 767.6 704.6 L 765.9 706.8 L 764.2 709.0 L 762.4 711.2 L 760.7 713.4 L 758.9 715.5 L 757.1 717.7 L 755.3 719.8 L 753.5 721.9 L 751.7 724.0 L 749.8 726.1 L 747.9 728.2 L 746.0 730.2 L 744.1 732.3 L 742.2 734.3 L 740.2 736.3 L 738.3 738.3 L 736.3 740.2 L 734.3 742.2 L 732.3 744.1 L 730.2 746.0 L 728.2 747.9 L 726.1 749.8 L 724.0 751.7 L 721.9 753.5 L 719.8 755.3 L 717.7 757.1 L 715.5 758.9 L 713.4 760.7 L 711.2 762.4 L 709.0 764.2 L 706.8 765.9 L 704.6 767.6 L 702.3 769.2 L 700.1 770.9 L 697.8 772.5 L 695.5 774.1 L 693.2 775.7 L 690.9 777.3 L 688.6 778.8 L 686.3 780.4 L 683.9 781.9 L 681.6 783.4 L 679.2 784.8 L 676.8 786.3 L 674.4 787.7 L 672.0 789.1 L 669.6 790.5 L 667.1 791.9 L 664.7 793.2 L 662.2 794.5 L 659.8 795.8 L 657.3 797.1 L 654.8 798.4 L 652.3 799.6 L 649.8 800.8 L 647.2 802.0 L 644.7 803.2 L 642.2 804.3 L 639.6 805.5 L 637.0 806.6 L 634.5 807.6 L 631.9 808.7 L 629.3 809.7 L 626.7 810.7 L 624.1 811.7 L 621.4 812.7 L 618.8 813.6 L 616.2 814.6 L 613.5 815.5 L 610.9 816.3 L 608.2 817.2 L 605.6 818.0 L 602.9 818.8 L 600.2 819.6 L 597.5 820.4 L 594.8 821.1 L 592.1 821.8 L 589.4 822.5 L 586.7 823.2 L 584.0 823.8 L 581.3 824.4 L 578.5 825.0 L 575.8 825.6 L 573.1 826.1 L 570.3 826.6 L 567.6 827.1 L 564.8 827.6 L 562.1 828.1 L 559.3 828.5 L 556.5 828.9 L 553.8 829.3 L 550.8 828.3 L 547.7 825.2 L 544.6 822.1 L 541.6 819.0 L 538.6 815.9 L 535.7 812.7 L 532.8 809.5 L 530.2 809.6 L 528.3 822.8 L 526.1 836.1 L 523.8 849.3 L 521.2 862.5 L 518.3 875.7 L 515.3 888.9 L 512.0 902.0 L 508.7 887.9 L 505.7 873.8 L 502.9 859.6 L 500.4 845.4 L 498.1 831.2 L 496.0 817.0 L 494.2 802.8 L 491.6 803.3 L 488.7 807.5 L 485.8 811.6 L 482.8 815.7 L 479.6 819.8 L 476.5 823.9 L 473.2 827.9 L 470.2 829.3 L 467.5 828.9 L 464.7 828.5 L 461.9 828.1 L 459.2 827.6 L 456.4 827.1 L 453.7 826.6 L 450.9 826.1 L 448.2 825.6 L 445.5 825.0 L 442.7 824.4 L 440.0 823.8 L 437.3 823.2 L 434.6 822.5 L 431.9 821.8 L 429.2 821.1 L 426.5 820.4 L 423.8 819.6 L 421.1 818.8 L 418.4 818.0 L 415.8 817.2 L 413.1 816.3 L 410.5 815.5 L 407.8 814.6 L 405.2 813.6 L 402.6 812.7 L 399.9 811.7 L 397.3 810.7 L 394.7 809.7 L 392.1 808.7 L 389.5 807.6 L 387.0 806.6 L 384.4 805.5 L 381.8 804.3 L 379.3 803.2 L 376.8 802.0 L 374.2 800.8 L 371.7 799.6 L 369.2 798.4 L 366.7 797.1 L 364.2 795.8 L 361.8 794.5 L 359.3 793.2 L 356.9 791.9 L 354.4 790.5 L 352.0 789.1 L 349.6 787.7 L 347.2 786.3 L 344.8 784.8 L 342.4 783.4 L 340.1 781.9 L 337.7 780.4 L 335.4 778.8 L 333.1 777.3 L 330.8 775.7 L 328.5 774.1 L 326.2 772.5 L 323.9 770.9 L 321.7 769.2 L 319.4 767.6 L 317.2 765.9 L 315.0 764.2 L 312.8 762.4 L 310.6 760.7 L 308.5 758.9 L 306.3 757.1 L 304.2 755.3 L 302.1 753.5 L 300.0 751.7 L 297.9 749.8 L 295.8 747.9 L 293.8 746.0 L 291.7 744.1 L 289.7 742.2 L 287.7 740.2 L 285.7 738.3 L 283.8 736.3 L 281.8 734.3 L 279.9 732.3 L 278.0 730.2 L 276.1 728.2 L 274.2 726.1 L 272.3 724.0 L 270.5 721.9 L 268.7 719.8 L 266.9 717.7 L 265.1 715.5 L 263.3 713.4 L 261.6 711.2 L 259.8 709.0 L 258.1 706.8 L 256.4 704.6 L 254.8 702.3 L 253.1 700.1 L 251.5 697.8 L 249.9 695.5 L 248.3 693.2 L 246.7 690.9 L 245.2 688.6 L 243.6 686.3 L 242.1 683.9 L 240.6 681.6 L 239.2 679.2 L 237.7 676.8 L 236.3 674.4 L 234.9 672.0 L 233.5 669.6 L 232.1 667.1 L 230.8 664.7 L 229.5 662.2 L 228.2 659.8 L 226.9 657.3 L 225.6 654.8 L 224.4 652.3 L 223.2 649.8 L 222.0 647.2 L 220.8 644.7 L 219.7 642.2 L 218.5 639.6 L 217.4 637.0 L 216.4 634.5 L 215.3 631.9 L 214.3 629.3 L 213.3 626.7 L 212.3 624.1 L 211.3 621.4 L 210.4 618.8 L 209.4 616.2 L 208.5 613.5 L 207.7 610.9 L 206.8 608.2 L 206.0 605.6 L 205.2 602.9 L 204.4 600.2 L 203.6 597.5 L 202.9 594.8 L 202.2 592.1 L 201.5 589.4 L 200.8 586.7 L 200.2 584.0 L 199.6 581.3 L 199.0 578.5 L 198.4 575.8 L 197.9 573.1 L 197.4 570.3 L 196.9 567.6 L 196.4 564.8 L 195.9 562.1 L 195.5 559.3 L 195.1 556.5 L 194.7 553.8 L 194.4 551.0 L 194.1 548.2 L 193.8 545.4 L 193.5 542.7 L 193.2 539.9 L 193.0 537.1 L 192.8 534.3 L 192.6 531.5 L 192.4 528.7 L 192.3 526.0 L 192.2 523.2 L 192.1 520.4 L 192.0 517.6 L 192.0 514.8 L 192.0 512.0 L 192.0 509.2 L 192.0 506.4 L 192.1 503.6 L 192.2 500.8 L 192.3 498.0 L 192.4 495.3 L 192.6 492.5 L 192.8 489.7 L 193.0 486.9 L 193.2 484.1 L 193.5 481.3 L 193.8 478.6 L 194.1 475.8 L 194.4 473.0 L 194.7 470.2 L 195.1 467.5 L 195.5 464.7 L 195.9 461.9 L 196.4 459.2 L 196.9 456.4 L 197.4 453.7 L 197.9 450.9 L 198.4 448.2 L 199.0 445.5 L 199.6 442.7 L 200.2 440.0 L 200.8 437.3 L 201.5 434.6 L 202.2 431.9 L 202.9 429.2 L 203.6 426.5 L 204.4 423.8 L 205.2 421.1 L 206.0 418.4 L 206.8 415.8 L 207.7 413.1 L 208.5 410.5 L 209.4 407.8 L 210.4 405.2 L 211.3 402.6 L 212.3 399.9 L 213.3 397.3 L 214.3 394.7 L 215.3 392.1 L 216.4 389.5 L 218.7 387.5 L 222.9 386.3 L 227.1 385.2 L 231.3 384.1 L 235.6 383.1 L 239.8 382.1 L 244.0 381.3 L 245.2 379.0 L 234.7 370.7 L 224.3 362.2 L 214.0 353.6 L 203.9 344.7 L 193.9 335.7 L 184.0 326.4 L 174.3 317.0 L 188.1 321.2 L 201.9 325.7 L 215.5 330.3 L 229.1 335.2 L 242.5 340.3 L 255.9 345.7 L 269.1 351.2 L 269.9 348.7 L 267.7 344.1 L 265.6 339.5 L 263.6 334.8 L 261.6 330.1 L 259.7 325.3 L 257.8 320.5 L 258.1 317.2 L 259.8 315.0 L 261.6 312.8 L 263.3 310.6 L 265.1 308.5 L 266.9 306.3 L 268.7 304.2 L 270.5 302.1 L 272.3 300.0 L 274.2 297.9 L 276.1 295.8 L 278.0 293.8 L 279.9 291.7 L 281.8 289.7 L 283.8 287.7 L 285.7 285.7 L 287.7 283.8 L 289.7 281.8 L 291.7 279.9 L 293.8 278.0 L 295.8 276.1 L 297.9 274.2 L 300.0 272.3 L 302.1 270.5 L 304.2 268.7 L 306.3 266.9 L 308.5 265.1 L 310.6 263.3 L 312.8 261.6 L 315.0 259.8 L 317.2 258.1 L 319.4 256.4 L 321.7 254.8 L 323.9 253.1 L 326.2 251.5 L 328.5 249.9 L 330.8 248.3 L 333.1 246.7 L 335.4 245.2 L 337.7 243.6 L 340.1 242.1 L 342.4 240.6 L 344.8 239.2 L 347.2 237.7 L 349.6 236.3 L 352.0 234.9 L 354.4 233.5 L 356.9 232.1 L 359.3 230.8 L 361.8 229.5 L 364.2 228.2 L 366.7 226.9 L 369.2 225.6 L 371.7 224.4 L 374.2 223.2 L 376.8 222.0 L 379.3 220.8 L 381.8 219.7 L 384.4 218.5 L 387.0 217.4 L 389.5 216.4 L 392.1 215.3 L 394.7 214.3 L 397.3 213.3 L 399.9 212.3 L 402.6 211.3 L 405.2 210.4 L 407.8 209.4 L 410.5 208.5 L 413.1 207.7 L 415.8 206.8 L 418.4 206.0 L 421.1 205.2 L 423.8 204.4 L 426.5 203.6 L 429.2 202.9 L 431.9 202.2 L 434.6 201.5 L 437.3 200.8 L 440.0 200.2 L 442.7 199.6 L 445.5 199.0 L 448.2 198.4 L 450.9 197.9 L 453.7 197.4 L 456.4 196.9 L 459.2 196.4 L 461.9 195.9 L 464.7 195.5 L 467.5 195.1 L 470.2 194.7 L 473.0 194.4 L 475.8 194.1 L 478.6 193.8 L 481.3 193.5 L 484.1 193.2 L 486.9 193.0 L 489.7 192.8 L 492.5 192.6 L 495.3 192.4 L 498.0 192.3 L 500.8 192.2 L 503.6 192.1 L 506.4 192.0 L 509.2 192.0 L 512.0 192.0" fill="none" stroke="url(#mono)" stroke-width="44" stroke-linecap="round" stroke-linejoin="round"/>
  <circle cx="512" cy="512" r="70" fill="url(#mono)"/>

</svg>
